<?xml version="1.0" standalone="no"?>
<!DOCTYPE svg PUBLIC "-//W3C//DTD SVG 20010904//EN"
 "http://www.w3.org/TR/2001/REC-SVG-20010904/DTD/svg10.dtd">
<svg version="1.0" xmlns="http://www.w3.org/2000/svg"
 width="1024.000000pt" height="1024.000000pt" viewBox="0 0 1024.000000 1024.000000"
 preserveAspectRatio="xMidYMid meet">

<g transform="translate(0.000000,1024.000000) scale(0.100000,-0.100000)"
fill="#000000" stroke="none">
<path d="M3320 7963 c-295 -296 -687 -691 -873 -879 l-337 -340 0 -1134 0
-1133 587 -587 c964 -962 1106 -1100 1136 -1100 31 0 32 1 101 172 30 73 106
260 170 416 64 156 116 293 116 305 0 16 -152 174 -535 557 l-535 535 0 785 0
785 568 568 567 567 757 0 757 0 19 28 c10 15 44 88 74 162 31 74 117 280 192
458 75 177 136 328 136 335 0 37 6 37 -1194 37 l-1171 0 -535 -537z m2734 395
c-3 -13 -77 -191 -163 -395 l-156 -373 -755 0 -755 0 -594 -594 -595 -595 0
-835 -1 -836 532 -532 533 -533 -56 -135 c-31 -74 -96 -232 -144 -350 -48
-118 -92 -216 -97 -217 -4 -2 -361 347 -791 774 l-783 778 1 1095 0 1095 837
837 838 838 1078 0 1078 0 -7 -22z"/>
<path d="M6332 8288 c-109 -258 -328 -802 -336 -832 -7 -28 15 -51 548 -585
l556 -556 0 -765 0 -765 -563 -563 -563 -563 -770 6 c-639 6 -772 5 -786 -6
-17 -14 -81 -164 -289 -681 -94 -236 -102 -259 -87 -274 8 -9 103 -42 209 -74
210 -63 859 -257 1324 -395 160 -47 410 -122 556 -166 146 -43 278 -79 293
-79 20 0 29 7 37 28 7 17 9 158 8 399 -2 205 -1 375 2 377 2 3 379 380 837
838 l832 833 0 1135 0 1135 -848 848 c-697 697 -852 847 -874 847 -24 0 -30
-10 -86 -142z m910 -815 l788 -788 0 -1080 0 -1081 -840 -839 -840 -840 0
-358 c0 -197 -4 -357 -9 -357 -5 0 -183 52 -397 116 -1151 342 -1285 382
-1707 506 -41 12 -66 25 -64 32 45 109 239 587 269 664 l41 102 776 0 776 0
587 587 588 588 0 825 0 825 -547 541 -547 541 88 219 c148 369 238 584 245
584 3 0 360 -354 793 -787z"/>
<path d="M4097 6531 l-398 -398 2 -569 2 -569 411 -412 411 -413 575 0 575 0
397 403 398 402 0 580 0 580 -397 390 c-218 215 -403 393 -412 397 -9 4 -275
7 -591 7 l-575 1 -398 -399z m1895 -88 l368 -368 0 -525 0 -525 -367 -367
-368 -368 -525 0 -525 1 -377 374 -378 375 0 528 0 529 360 356 359 357 543 0
543 0 367 -367z"/>
<path d="M4569 6082 c-108 -108 -204 -208 -213 -222 -14 -21 -16 -63 -16 -309
l0 -284 197 -201 c108 -110 205 -209 216 -218 17 -16 47 -18 306 -18 l286 0
218 218 217 217 0 295 1 295 -218 212 -218 212 -290 1 -290 0 -196 -198z m919
-105 l183 -184 -1 -235 -1 -235 -187 -187 -187 -186 -239 0 -240 0 -179 178
-178 178 1 249 0 250 178 178 177 177 245 0 246 0 182 -183z"/>
<path d="M4975 5881 c-133 -33 -238 -159 -252 -303 -20 -223 170 -401 393
-366 105 16 190 79 244 180 31 57 34 71 35 148 0 77 -3 92 -33 152 -72 148
-234 226 -387 189z m186 -139 c147 -77 160 -290 23 -381 -150 -99 -343 6 -344
187 0 172 168 274 321 194z"/>
</g>
</svg>
